<mxfile host="app.diagrams.net" agent="Mozilla/5.0 (Windows NT 10.0; Win64; x64) AppleWebKit/537.36 (KHTML, like Gecko) Chrome/132.0.0.0 Safari/537.36" version="26.0.11">
  <diagram name="Page-1" id="aYhIU1_z3OYGWtctad0D">
    <mxGraphModel dx="1434" dy="738" grid="1" gridSize="10" guides="1" tooltips="1" connect="1" arrows="1" fold="1" page="1" pageScale="1" pageWidth="827" pageHeight="1169" math="0" shadow="0">
      <root>
        <mxCell id="0" />
        <mxCell id="1" parent="0" />
        <mxCell id="AXamPhLNFkU1PMrvn4Z2-1" value="" style="rounded=1;whiteSpace=wrap;html=1;shadow=1;fillColor=light-dark(#99FFCC,var(--ge-dark-color, #121212));" parent="1" vertex="1">
          <mxGeometry x="9.999999999999993" y="259.7" width="1009.4" height="313" as="geometry" />
        </mxCell>
        <mxCell id="AXamPhLNFkU1PMrvn4Z2-2" value="" style="whiteSpace=wrap;html=1;aspect=fixed;fillColor=light-dark(#FF9933,var(--ge-dark-color, #121212));align=center;movable=1;resizable=1;rotatable=1;deletable=1;editable=1;locked=0;connectable=1;" parent="1" vertex="1">
          <mxGeometry x="59.99999999999999" y="317.3" width="178.89803921568628" height="178.89803921568628" as="geometry" />
        </mxCell>
        <mxCell id="AXamPhLNFkU1PMrvn4Z2-4" value="&lt;font style=&quot;font-size: 24px;&quot;&gt;&lt;b&gt;UI&lt;/b&gt;&lt;/font&gt;" style="text;strokeColor=none;align=center;fillColor=none;html=1;verticalAlign=middle;whiteSpace=wrap;rounded=0;movable=1;resizable=1;rotatable=1;deletable=1;editable=1;locked=0;connectable=1;" parent="1" vertex="1">
          <mxGeometry x="120.05000000000001" y="334.2" width="58.800000000000004" height="30" as="geometry" />
        </mxCell>
        <mxCell id="AXamPhLNFkU1PMrvn4Z2-5" value="&lt;font style=&quot;font-size: 17px;&quot;&gt;Controllers&lt;/font&gt;" style="text;strokeColor=none;align=center;fillColor=none;html=1;verticalAlign=middle;whiteSpace=wrap;rounded=0;movable=1;resizable=1;rotatable=1;deletable=1;editable=1;locked=0;connectable=1;" parent="1" vertex="1">
          <mxGeometry x="120.05000000000001" y="374.2" width="58.800000000000004" height="30" as="geometry" />
        </mxCell>
        <mxCell id="AXamPhLNFkU1PMrvn4Z2-6" value="&lt;font style=&quot;font-size: 17px;&quot;&gt;Views&lt;/font&gt;" style="text;strokeColor=none;align=center;fillColor=none;html=1;verticalAlign=middle;whiteSpace=wrap;rounded=0;movable=1;resizable=1;rotatable=1;deletable=1;editable=1;locked=0;connectable=1;" parent="1" vertex="1">
          <mxGeometry x="120.05000000000001" y="401.2" width="58.800000000000004" height="30" as="geometry" />
        </mxCell>
        <mxCell id="AXamPhLNFkU1PMrvn4Z2-8" value="&lt;font style=&quot;font-size: 17px;&quot;&gt;Filters&lt;/font&gt;" style="text;strokeColor=none;align=center;fillColor=none;html=1;verticalAlign=middle;whiteSpace=wrap;rounded=0;movable=1;resizable=1;rotatable=1;deletable=1;editable=1;locked=0;connectable=1;" parent="1" vertex="1">
          <mxGeometry x="120.05000000000001" y="435.2" width="58.800000000000004" height="30" as="geometry" />
        </mxCell>
        <mxCell id="AXamPhLNFkU1PMrvn4Z2-9" value="&lt;font style=&quot;font-size: 17px;&quot;&gt;Middleware&lt;/font&gt;" style="text;strokeColor=none;align=center;fillColor=none;html=1;verticalAlign=middle;whiteSpace=wrap;rounded=0;movable=1;resizable=1;rotatable=1;deletable=1;editable=1;locked=0;connectable=1;" parent="1" vertex="1">
          <mxGeometry x="120.05000000000001" y="466.2" width="58.800000000000004" height="30" as="geometry" />
        </mxCell>
        <mxCell id="AXamPhLNFkU1PMrvn4Z2-30" value="" style="group" parent="1" vertex="1" connectable="0">
          <mxGeometry x="783" y="323.75" width="190" height="190" as="geometry" />
        </mxCell>
        <mxCell id="AXamPhLNFkU1PMrvn4Z2-10" value="" style="whiteSpace=wrap;html=1;aspect=fixed;fillColor=light-dark(#FFCCCC,var(--ge-dark-color, #121212));align=center;movable=1;resizable=1;rotatable=1;deletable=1;editable=1;locked=0;connectable=1;" parent="AXamPhLNFkU1PMrvn4Z2-30" vertex="1">
          <mxGeometry width="190" height="190" as="geometry" />
        </mxCell>
        <mxCell id="AXamPhLNFkU1PMrvn4Z2-11" value="&lt;font style=&quot;font-size: 24px;&quot;&gt;&lt;b&gt;Infrastructure&lt;/b&gt;&lt;/font&gt;" style="text;strokeColor=none;align=center;fillColor=none;html=1;verticalAlign=middle;whiteSpace=wrap;rounded=0;movable=1;resizable=1;rotatable=1;deletable=1;editable=1;locked=0;connectable=1;" parent="AXamPhLNFkU1PMrvn4Z2-30" vertex="1">
          <mxGeometry x="65" y="9" width="60" height="30" as="geometry" />
        </mxCell>
        <mxCell id="AXamPhLNFkU1PMrvn4Z2-12" value="&lt;font style=&quot;font-size: 17px;&quot;&gt;DbContext&lt;/font&gt;" style="text;strokeColor=none;align=center;fillColor=none;html=1;verticalAlign=middle;whiteSpace=wrap;rounded=0;movable=1;resizable=1;rotatable=1;deletable=1;editable=1;locked=0;connectable=1;" parent="AXamPhLNFkU1PMrvn4Z2-30" vertex="1">
          <mxGeometry x="65" y="49" width="60" height="30" as="geometry" />
        </mxCell>
        <mxCell id="AXamPhLNFkU1PMrvn4Z2-13" value="&lt;font style=&quot;font-size: 17px;&quot;&gt;Repositories&lt;/font&gt;" style="text;strokeColor=none;align=center;fillColor=none;html=1;verticalAlign=middle;whiteSpace=wrap;rounded=0;movable=1;resizable=1;rotatable=1;deletable=1;editable=1;locked=0;connectable=1;" parent="AXamPhLNFkU1PMrvn4Z2-30" vertex="1">
          <mxGeometry x="65" y="90" width="60" height="30" as="geometry" />
        </mxCell>
        <mxCell id="AXamPhLNFkU1PMrvn4Z2-14" value="&lt;font style=&quot;font-size: 17px;&quot;&gt;External API calls&lt;/font&gt;" style="text;strokeColor=none;align=center;fillColor=none;html=1;verticalAlign=middle;whiteSpace=wrap;rounded=0;movable=1;resizable=1;rotatable=1;deletable=1;editable=1;locked=0;connectable=1;" parent="AXamPhLNFkU1PMrvn4Z2-30" vertex="1">
          <mxGeometry x="20" y="131" width="160" height="30" as="geometry" />
        </mxCell>
        <mxCell id="AXamPhLNFkU1PMrvn4Z2-31" value="" style="group" parent="1" vertex="1" connectable="0">
          <mxGeometry x="371.25" y="263" width="287.5" height="287.5" as="geometry" />
        </mxCell>
        <mxCell id="AXamPhLNFkU1PMrvn4Z2-15" value="" style="ellipse;whiteSpace=wrap;html=1;aspect=fixed;fillColor=light-dark(#FFFF66,var(--ge-dark-color, #121212));" parent="AXamPhLNFkU1PMrvn4Z2-31" vertex="1">
          <mxGeometry width="287.5" height="287.5" as="geometry" />
        </mxCell>
        <mxCell id="AXamPhLNFkU1PMrvn4Z2-16" value="&lt;font style=&quot;font-size: 24px;&quot;&gt;&lt;b&gt;Core&lt;/b&gt;&lt;/font&gt;" style="text;strokeColor=none;align=center;fillColor=none;html=1;verticalAlign=middle;whiteSpace=wrap;rounded=0;" parent="AXamPhLNFkU1PMrvn4Z2-31" vertex="1">
          <mxGeometry x="113.75" y="8.75" width="60" height="30" as="geometry" />
        </mxCell>
        <mxCell id="AXamPhLNFkU1PMrvn4Z2-17" value="&lt;font style=&quot;font-size: 17px;&quot;&gt;Busness Logic interfaces&lt;/font&gt;" style="text;strokeColor=none;align=center;fillColor=none;html=1;verticalAlign=middle;whiteSpace=wrap;rounded=0;" parent="AXamPhLNFkU1PMrvn4Z2-31" vertex="1">
          <mxGeometry x="48.75" y="67.75" width="210" height="30" as="geometry" />
        </mxCell>
        <mxCell id="AXamPhLNFkU1PMrvn4Z2-18" value="&lt;font style=&quot;font-size: 17px;&quot;&gt;Business Logic Services&lt;/font&gt;" style="text;strokeColor=none;align=center;fillColor=none;html=1;verticalAlign=middle;whiteSpace=wrap;rounded=0;" parent="AXamPhLNFkU1PMrvn4Z2-31" vertex="1">
          <mxGeometry x="48.75" y="37.75" width="200" height="30" as="geometry" />
        </mxCell>
        <mxCell id="AXamPhLNFkU1PMrvn4Z2-21" value="&lt;font style=&quot;font-size: 17px;&quot;&gt;Data Transfer Objects(DTO)&lt;/font&gt;" style="text;strokeColor=none;align=center;fillColor=none;html=1;verticalAlign=middle;whiteSpace=wrap;rounded=0;" parent="AXamPhLNFkU1PMrvn4Z2-31" vertex="1">
          <mxGeometry x="38.75" y="97.75" width="230" height="30" as="geometry" />
        </mxCell>
        <mxCell id="AXamPhLNFkU1PMrvn4Z2-24" value="" style="ellipse;whiteSpace=wrap;html=1;fillColor=light-dark(#FFE599,var(--ge-dark-color, #121212));" parent="AXamPhLNFkU1PMrvn4Z2-31" vertex="1">
          <mxGeometry x="23.75" y="142.25" width="235" height="116.5" as="geometry" />
        </mxCell>
        <mxCell id="AXamPhLNFkU1PMrvn4Z2-25" value="&lt;font style=&quot;font-size: 24px;&quot;&gt;&lt;b&gt;Domain&lt;/b&gt;&lt;/font&gt;" style="text;strokeColor=none;align=center;fillColor=none;html=1;verticalAlign=middle;whiteSpace=wrap;rounded=0;" parent="AXamPhLNFkU1PMrvn4Z2-31" vertex="1">
          <mxGeometry x="113.75" y="148.75" width="60" height="30" as="geometry" />
        </mxCell>
        <mxCell id="AXamPhLNFkU1PMrvn4Z2-27" value="&lt;font style=&quot;font-size: 17px;&quot;&gt;Repository Interfaces&lt;/font&gt;" style="text;strokeColor=none;align=center;fillColor=none;html=1;verticalAlign=middle;whiteSpace=wrap;rounded=0;" parent="AXamPhLNFkU1PMrvn4Z2-31" vertex="1">
          <mxGeometry x="43.75" y="178.75" width="210" height="30" as="geometry" />
        </mxCell>
        <mxCell id="AXamPhLNFkU1PMrvn4Z2-28" value="&lt;font style=&quot;font-size: 17px;&quot;&gt;Entity Classes&lt;/font&gt;" style="text;strokeColor=none;align=center;fillColor=none;html=1;verticalAlign=middle;whiteSpace=wrap;rounded=0;" parent="AXamPhLNFkU1PMrvn4Z2-31" vertex="1">
          <mxGeometry x="43.75" y="208.75" width="210" height="30" as="geometry" />
        </mxCell>
        <mxCell id="AXamPhLNFkU1PMrvn4Z2-33" value="" style="shape=flexArrow;endArrow=classic;html=1;rounded=0;entryX=-0.001;entryY=0.58;entryDx=0;entryDy=0;entryPerimeter=0;fillColor=#990000;" parent="1" edge="1">
          <mxGeometry width="50" height="50" relative="1" as="geometry">
            <mxPoint x="240" y="404.75" as="sourcePoint" />
            <mxPoint x="370.9625000000001" y="402.75" as="targetPoint" />
            <Array as="points">
              <mxPoint x="300" y="404.75" />
            </Array>
          </mxGeometry>
        </mxCell>
        <mxCell id="AXamPhLNFkU1PMrvn4Z2-34" value="" style="shape=flexArrow;endArrow=classic;html=1;rounded=0;fillColor=#990000;" parent="1" edge="1">
          <mxGeometry width="50" height="50" relative="1" as="geometry">
            <mxPoint x="780" y="407.75" as="sourcePoint" />
            <mxPoint x="660" y="407.75" as="targetPoint" />
          </mxGeometry>
        </mxCell>
        <mxCell id="AXamPhLNFkU1PMrvn4Z2-35" value="&lt;font style=&quot;font-size: 15px; color: rgb(255, 0, 0);&quot;&gt;Add Ref to&lt;/font&gt;" style="text;strokeColor=none;align=center;fillColor=none;html=1;verticalAlign=middle;whiteSpace=wrap;rounded=0;" parent="1" vertex="1">
          <mxGeometry x="250" y="371.75" width="100" height="30" as="geometry" />
        </mxCell>
        <mxCell id="AXamPhLNFkU1PMrvn4Z2-36" value="&lt;font style=&quot;font-size: 15px; color: rgb(255, 0, 0);&quot;&gt;Add Ref to&lt;/font&gt;" style="text;strokeColor=none;align=center;fillColor=none;html=1;verticalAlign=middle;whiteSpace=wrap;rounded=0;" parent="1" vertex="1">
          <mxGeometry x="680" y="371.75" width="100" height="30" as="geometry" />
        </mxCell>
        <mxCell id="AXamPhLNFkU1PMrvn4Z2-44" value="&lt;font style=&quot;font-size: 34px;&quot;&gt;&lt;b&gt;Clean Architecture&lt;/b&gt;&lt;/font&gt;" style="text;strokeColor=none;align=center;fillColor=none;html=1;verticalAlign=middle;whiteSpace=wrap;rounded=0;" parent="1" vertex="1">
          <mxGeometry x="329.7" y="210" width="370" height="30" as="geometry" />
        </mxCell>
      </root>
    </mxGraphModel>
  </diagram>
</mxfile>
